<svg width="24" height="19" fill="none" xmlns="http://www.w3.org/2000/svg"><g clip-path="url('#clip0_1_424')" fill="#000"><path d="M15.237 15.817c0-.443.135-.877.39-1.246a2.298 2.298 0 0 1 1.036-.826c.422-.17.887-.214 1.335-.128.448.087.86.3 1.182.614.324.314.544.714.633 1.149.089.435.043.886-.132 1.296-.175.41-.47.76-.85 1.006a2.36 2.36 0 0 1-2.917-.279 2.21 2.21 0 0 1-.677-1.586Zm1.386 0c0 .178.054.351.156.499a.918.918 0 0 0 .414.33.95.95 0 0 0 1.007-.194.872.872 0 0 0 .2-.978.904.904 0 0 0-.34-.403.938.938 0 0 0-1.164.113.884.884 0 0 0-.268.633h-.005ZM9.41 15.817c0-.443.136-.877.39-1.246a2.297 2.297 0 0 1 1.037-.826c.422-.17.886-.214 1.335-.128.448.087.86.3 1.182.614.323.314.544.714.633 1.149.089.435.043.886-.132 1.296-.175.41-.47.76-.85 1.006a2.36 2.36 0 0 1-2.918-.279 2.21 2.21 0 0 1-.676-1.586Zm1.387 0c0 .178.054.351.155.499a.918.918 0 0 0 .415.33.95.95 0 0 0 1.007-.194.872.872 0 0 0 .2-.978.903.903 0 0 0-.34-.403.944.944 0 0 0-1.165.113.884.884 0 0 0-.27.633h-.002ZM9.032 12.335h11.075a.707.707 0 0 0 .399-.124.675.675 0 0 0 .252-.325l2.886-7.626a.654.654 0 0 0-.087-.612.71.71 0 0 0-.564-.285H9.572c-.184 0-.36.07-.49.197a.663.663 0 0 0 0 .951c.13.127.306.197.49.197h12.424l-2.375 6.28H9.535L6.001.529a.675.675 0 0 0-.253-.336.707.707 0 0 0-.408-.127H1.38c-.183 0-.36.071-.49.198a.663.663 0 0 0 0 .951c.13.126.307.197.49.197h3.466l3.537 10.46c.044.133.131.25.248.332.116.084.256.13.4.132Z"/></g><defs><clipPath id="clip0_1_424"><path fill="#fff" transform="translate(.688 .063)" d="M0 0h23v18H0z"/></clipPath></defs></svg>