<svg width="17" height="10" fill="none" xmlns="http://www.w3.org/2000/svg"><g clip-path="url('#clip0_1_273')"><path d="M9.009 9.546a.739.739 0 0 1-.546-.21.89.89 0 0 1-.21-.588c0-.196.042-.378.126-.546l2.688-6.972c.14-.28.308-.518.504-.714.196-.224.49-.336.882-.336h2.142c.252 0 .448.084.588.252.14.168.182.392.126.672l-1.092 7.098a1.677 1.677 0 0 1-.378.924c-.224.28-.546.42-.966.42H9.009Zm-7.98 0a.739.739 0 0 1-.546-.21.89.89 0 0 1-.21-.588c0-.196.042-.378.126-.546L3.087 1.23c.14-.28.308-.518.504-.714.196-.224.49-.336.882-.336h2.142c.224 0 .406.084.546.252.168.168.224.392.168.672L6.237 8.202a1.677 1.677 0 0 1-.378.924c-.224.28-.546.42-.966.42H1.029Z" fill="#C41239"/></g><defs><clipPath id="clip0_1_273"><path fill="#fff" transform="translate(.172)" d="M0 0h16v10H0z"/></clipPath></defs></svg>