<svg width="13" height="13" fill="none" xmlns="http://www.w3.org/2000/svg"><g clip-path="url('#clip0_1_281')"><mask id="mask0_1_281" style="mask-type:luminance" maskUnits="userSpaceOnUse" x="0" y="0" width="13" height="13"><path d="M12.281.5h-12v12h12V.5Z" fill="#fff"/></mask><g mask="url('#mask0_1_281')"><path d="M6.281.5a6 6 0 1 0 6 6 6.008 6.008 0 0 0-6-6Zm3.327 4.778-3.833 3.83a.633.633 0 0 1-.443.185.626.626 0 0 1-.445-.192l-1.94-2.003a.626.626 0 0 1 .903-.87l1.49 1.545L8.72 4.392a.618.618 0 0 1 .443-.184.627.627 0 0 1 .444 1.07Z" fill="#5C700E"/></g></g><defs><clipPath id="clip0_1_281"><path fill="#fff" transform="translate(.281 .5)" d="M0 0h12v12H0z"/></clipPath></defs></svg>