<svg width="15" height="14" fill="none" xmlns="http://www.w3.org/2000/svg"><g clip-path="url('#clip0_1_192')"><path fill-rule="evenodd" clip-rule="evenodd" d="M7.392 11.225 3.73 13.666a.32.32 0 0 1-.495-.311l.618-4.322L.766 5.946a.32.32 0 0 1 .181-.543l4.302-.614L7.099.474a.32.32 0 0 1 .587 0l1.85 4.315 4.302.614a.32.32 0 0 1 .18.543l-3.086 3.087.617 4.322a.32.32 0 0 1-.494.311l-3.663-2.441Z" fill="#EEB211"/></g><defs><clipPath id="clip0_1_192"><path fill="#fff" transform="translate(.672)" d="M0 0h14v14H0z"/></clipPath></defs></svg>