<svg width="15" height="14" fill="none" xmlns="http://www.w3.org/2000/svg"><g clip-path="url('#clip0_1_212')"><path fill-rule="evenodd" clip-rule="evenodd" d="m7.173 11.225-3.662 2.441a.32.32 0 0 1-.494-.311l.617-4.322L.547 5.946a.32.32 0 0 1 .181-.543L5.03 4.79 6.88.474a.32.32 0 0 1 .588 0l1.849 4.315 4.302.614a.32.32 0 0 1 .18.543l-3.086 3.087.617 4.322a.32.32 0 0 1-.494.311l-3.663-2.441Z" fill="#EEB211"/></g><defs><clipPath id="clip0_1_212"><path fill="#fff" transform="translate(.453)" d="M0 0h14v14H0z"/></clipPath></defs></svg>