<svg width="15" height="14" fill="none" xmlns="http://www.w3.org/2000/svg"><g clip-path="url('#clip0_1_202')"><path fill-rule="evenodd" clip-rule="evenodd" d="m7.19 11.225-3.663 2.441a.32.32 0 0 1-.495-.311l.618-4.322L.563 5.946a.32.32 0 0 1 .18-.543l4.303-.614L6.895.474a.32.32 0 0 1 .588 0l1.85 4.315 4.301.614a.32.32 0 0 1 .181.543L10.73 9.033l.617 4.322a.32.32 0 0 1-.494.311l-3.663-2.441Z" fill="#EEB211"/></g><defs><clipPath id="clip0_1_202"><path fill="#fff" transform="translate(.469)" d="M0 0h14v14H0z"/></clipPath></defs></svg>