<svg width="16" height="14" fill="none" xmlns="http://www.w3.org/2000/svg"><g clip-path="url('#clip0_1_375')"><path d="M8.516 4.006a3.37 3.37 0 0 0-3.37 3.369 3.351 3.351 0 0 0 3.37 3.37 3.37 3.37 0 0 0 3.369-3.37 3.389 3.389 0 0 0-3.37-3.37Zm0 5.566a2.194 2.194 0 0 1-2.198-2.197c0-1.201.967-2.168 2.198-2.168 1.2 0 2.168.967 2.168 2.168 0 1.23-.967 2.197-2.168 2.197Zm4.277-5.683a.788.788 0 0 0-.791-.791.788.788 0 0 0-.791.79c0 .44.351.792.79.792.44 0 .792-.352.792-.791Zm2.227.79c-.06-1.054-.293-1.992-1.055-2.753-.762-.762-1.7-.996-2.754-1.055-1.084-.058-4.336-.058-5.42 0-1.055.059-1.963.293-2.754 1.055-.762.762-.996 1.699-1.055 2.754-.058 1.084-.058 4.336 0 5.42.059 1.054.293 1.963 1.055 2.754.791.761 1.7.996 2.754 1.054 1.084.059 4.336.059 5.42 0 1.055-.058 1.992-.293 2.754-1.054.761-.791.996-1.7 1.055-2.754.058-1.084.058-4.336 0-5.42Zm-1.407 6.563c-.205.586-.674 1.026-1.23 1.26-.88.351-2.93.264-3.867.264-.967 0-3.018.088-3.868-.264a2.221 2.221 0 0 1-1.26-1.26c-.35-.85-.263-2.9-.263-3.867 0-.938-.088-2.988.264-3.867a2.26 2.26 0 0 1 1.26-1.23c.849-.352 2.9-.264 3.867-.264.937 0 2.988-.088 3.867.263.556.205.996.674 1.23 1.23.352.88.264 2.93.264 3.868 0 .967.088 3.018-.264 3.867Z" fill="#fff"/></g><defs><clipPath id="clip0_1_375"><path fill="#fff" transform="translate(.953)" d="M0 0h15v14H0z"/></clipPath></defs></svg>