<svg width="17" height="12" fill="none" xmlns="http://www.w3.org/2000/svg"><g clip-path="url('#clip0_1_383')"><path d="M15.465 2.668a1.86 1.86 0 0 0-1.313-1.34C12.977 1 8.328 1 8.328 1s-4.676 0-5.851.328a1.86 1.86 0 0 0-1.313 1.34C.836 3.816.836 6.278.836 6.278s0 2.433.328 3.609a1.824 1.824 0 0 0 1.313 1.312c1.175.301 5.851.301 5.851.301s4.649 0 5.824-.3a1.824 1.824 0 0 0 1.313-1.313c.328-1.176.328-3.61.328-3.61s0-2.46-.328-3.609ZM6.797 8.492v-4.43l3.883 2.215-3.883 2.215Z" fill="#fff"/></g><defs><clipPath id="clip0_1_383"><path fill="#fff" transform="translate(.453 .5)" d="M0 0h16v11H0z"/></clipPath></defs></svg>