<svg width="15" height="14" fill="none" xmlns="http://www.w3.org/2000/svg"><g clip-path="url('#clip0_1_182')"><path fill-rule="evenodd" clip-rule="evenodd" d="m7.22 11.225-3.662 2.441a.32.32 0 0 1-.494-.311l.617-4.322L.594 5.946a.32.32 0 0 1 .181-.543l4.302-.614L6.927.474a.32.32 0 0 1 .587 0l1.85 4.315 4.302.614a.32.32 0 0 1 .18.543L10.76 9.033l.617 4.322a.32.32 0 0 1-.494.311L7.22 11.225Z" fill="#EEB211"/></g><defs><clipPath id="clip0_1_182"><path fill="#fff" transform="translate(.5)" d="M0 0h14v14H0z"/></clipPath></defs></svg>