<svg width="15" height="12" fill="none" xmlns="http://www.w3.org/2000/svg"><g clip-path="url('#clip0_1_379')"><path d="M13.004 2.906a6.083 6.083 0 0 0 1.422-1.476 5.382 5.382 0 0 1-1.64.437A2.805 2.805 0 0 0 14.042.281a6.063 6.063 0 0 1-1.805.711A2.871 2.871 0 0 0 10.133.09a2.87 2.87 0 0 0-2.871 2.87c0 .22.027.438.082.657A8.33 8.33 0 0 1 1.41.61c-.246.41-.383.903-.383 1.45 0 .984.493 1.859 1.286 2.378-.465-.027-.93-.136-1.313-.355v.027c0 1.395.984 2.543 2.297 2.817-.219.054-.492.11-.738.11-.192 0-.356-.028-.547-.056a2.857 2.857 0 0 0 2.68 1.997 5.772 5.772 0 0 1-3.555 1.23c-.246 0-.465-.027-.684-.055 1.258.82 2.762 1.286 4.402 1.286 5.278 0 8.149-4.348 8.149-8.149v-.383Z" fill="#fff"/></g><defs><clipPath id="clip0_1_379"><path fill="#fff" transform="translate(.453)" d="M0 0h14v12H0z"/></clipPath></defs></svg>