<svg width="20" height="19" fill="none" xmlns="http://www.w3.org/2000/svg"><g clip-path="url('#clip0_1_414')"><mask id="mask0_1_414" style="mask-type:luminance" maskUnits="userSpaceOnUse" x="0" y="0" width="20" height="19"><path d="M19.516.063h-19v18h19v-18Z" fill="#fff"/></mask><g mask="url('#mask0_1_414')" fill="#000"><path d="M10.014 10.257a4.667 4.667 0 0 1-2.69-.858A5.05 5.05 0 0 1 5.54 7.111a5.352 5.352 0 0 1-.276-2.946A5.188 5.188 0 0 1 6.59 1.553 4.77 4.77 0 0 1 9.068.158a4.612 4.612 0 0 1 2.797.29 4.905 4.905 0 0 1 2.172 1.88c.532.838.815 1.825.815 2.833a5.242 5.242 0 0 1-1.419 3.602 4.722 4.722 0 0 1-3.419 1.494Zm0-8.808c-.697-.001-1.379.216-1.959.624a3.678 3.678 0 0 0-1.299 1.666 3.897 3.897 0 0 0-.201 2.145c.135.72.47 1.382.964 1.902.492.519 1.12.873 1.804 1.016.684.144 1.393.07 2.037-.21a3.571 3.571 0 0 0 1.582-1.368c.387-.61.594-1.328.594-2.063 0-.984-.372-1.927-1.032-2.623a3.439 3.439 0 0 0-2.49-1.09Z"/><path d="M18.857 18.063H1.172a.634.634 0 0 1-.272-.06.665.665 0 0 1-.36-.428.724.724 0 0 1-.024-.29c.517-4.518 2.457-6.829 5.932-7.075a.65.65 0 0 1 .432.136 5.011 5.011 0 0 0 3.127 1.106 5.011 5.011 0 0 0 3.126-1.106.662.662 0 0 1 .436-.136c3.482.238 5.42 2.55 5.937 7.074a.735.735 0 0 1-.162.545.657.657 0 0 1-.22.172.624.624 0 0 1-.267.061Zm-16.914-1.39H18.11c-.527-3.22-1.9-4.796-4.377-5.05a6.243 6.243 0 0 1-3.705 1.228 6.243 6.243 0 0 1-3.705-1.229c-2.49.255-3.862 1.832-4.39 5.052h.01Z"/></g></g><defs><clipPath id="clip0_1_414"><path fill="#fff" transform="translate(.516 .063)" d="M0 0h19v18H0z"/></clipPath></defs></svg>