<svg width="59" height="61" fill="none" xmlns="http://www.w3.org/2000/svg"><g clip-path="url('#clip0_1_74')"><mask id="mask0_1_74" style="mask-type:luminance" maskUnits="userSpaceOnUse" x="0" y="0" width="59" height="60"><path d="M58.117.125H.438v59.78h57.68V.125Z" fill="#fff"/></mask><g mask="url('#mask0_1_74')" fill="#000"><path d="M42.617 9.325h-2.88v2.3h2.88v-2.3ZM36.608 9.325h-2.88v2.3h2.88v-2.3ZM30.608 9.325h-2.88v2.3h2.88v-2.3Z"/><path d="M53.398 50.795h-2.79c3.91-2.32 6.48-6.16 6.48-10.51v-9.37a1.138 1.138 0 0 0-1.14-1.15h-12.77v-4.1h4.91a1.14 1.14 0 0 0 1.14-1.14v-5h2.41a1.15 1.15 0 0 0 1.15-1.15v-6.75h3.16v-2.3h-3.19a9.71 9.71 0 0 0-9.68-9.2h-32.94a9.71 9.71 0 0 0-9.7 9.7 9.72 9.72 0 0 0 8.32 9.6 5 5 0 0 1 3.09 4.6l-2.2 22.16v.11a4.51 4.51 0 0 1-4.5 4.5 4.71 4.71 0 0 0-4.71 4.71v3.22a1.14 1.14 0 0 0 1.12 1.18h55.38a1.139 1.139 0 0 0 1.17-1.18v-3.22a4.71 4.71 0 0 0-4.71-4.71Zm1.4-10.51c0 5.8-5.73 10.51-12.77 10.51-7.04 0-12.77-4.71-12.77-10.51v-8.23h25.54v8.23Zm-13.92-10.56h-12.77a1.14 1.14 0 0 0-1.14 1.15v9.37c0 4.35 2.57 8.19 6.48 10.51h-2.18a8.55 8.55 0 0 1-8.54-8.54v-14.14a8.55 8.55 0 0 1 8.54-8.54h2.75v5a1.15 1.15 0 0 0 1.15 1.14h5.71v4.05Zm6.06-6.39h-10.62v-3.84h10.62v3.84ZM2.728 9.825a7.43 7.43 0 0 1 7.41-7.41h32.94a7.42 7.42 0 0 1 7.41 7.41v7.41h-40.35a7.42 7.42 0 0 1-7.41-7.41Zm53.09 47.79H2.728v-2.11a2.42 2.42 0 0 1 2.42-2.41 6.8 6.8 0 0 0 6.79-6.74l2.2-22.21a.885.885 0 0 0 0-.23 7.22 7.22 0 0 0-1.56-4.38h12a10.8 10.8 0 0 0-4.17 8.54v14.18a10.85 10.85 0 0 0 10.83 10.84h22.13a2.42 2.42 0 0 1 2.42 2.41l.03 2.11Z"/></g></g><defs><clipPath id="clip0_1_74"><path fill="#fff" transform="translate(.438 .125)" d="M0 0h58v60H0z"/></clipPath></defs></svg>