<svg width="60" height="59" fill="none" xmlns="http://www.w3.org/2000/svg"><g clip-path="url('#clip0_1_57')"><mask id="mask0_1_57" style="mask-type:luminance" maskUnits="userSpaceOnUse" x="0" y="0" width="59" height="58"><path d="M58.841.125H.531v57.81h58.31V.125Z" fill="#fff"/></mask><g mask="url('#mask0_1_57')" fill="#000"><path d="M13.77 36.755a15.61 15.61 0 0 0 15.59 15.6 15.62 15.62 0 0 0 15.601-15.6 15.62 15.62 0 0 0-15.6-15.6 15.61 15.61 0 0 0-15.59 15.6Zm28.84-1.14h-5v2.29h5a13.31 13.31 0 0 1-12.1 12.1v-5h-2.289v5a13.31 13.31 0 0 1-12.1-12.1h5v-2.29h-5a13.31 13.31 0 0 1 12.1-12.1v3.12h2.29v-3.12a13.31 13.31 0 0 1 12.1 12.06v.04Z"/><path d="m33.451 27.755-3.6 6.17a3.192 3.192 0 0 0-1.44 0 3.15 3.15 0 0 0-1.92 1.45 3.13 3.13 0 0 0-.32 2.39 3.15 3.15 0 0 0 1.45 1.92 3.22 3.22 0 0 0 1.59.43c.27-.003.539-.04.8-.11a3.111 3.111 0 0 0 1.91-1.45 3.14 3.14 0 0 0-.15-3.4l3.67-6.27-1.99-1.13Zm-3.51 9.67a.84.84 0 0 1-1.16.3.87.87 0 0 1-.39-.51.83.83 0 0 1 .09-.65.86.86 0 0 1 .52-.39c.07-.01.14-.01.21 0a.86.86 0 0 1 .82.64.81.81 0 0 1-.09.57v.04ZM24.871 4.745h-2.8v2.3h2.8v-2.3ZM30.611 4.745h-2.79v2.3h2.79v-2.3ZM36.351 4.745h-2.79v2.3h2.79v-2.3Z"/><path d="M46.041 11.665a10.4 10.4 0 0 0 10.33-9.25h2.48V.125H.541v2.29h2.5a10.4 10.4 0 0 0 10.32 9.25h14.68v3.88a22.15 22.15 0 0 0-20.83 22.09v18h-3.14v2.3h50.25v-2.29h-2.84v-18a22.16 22.16 0 0 0-21.14-22.11v-3.86l15.7-.01Zm3.18 26v18H9.531v-18a19.86 19.86 0 0 1 19.83-19.91 19.86 19.86 0 0 1 19.85 19.88l.01.03Zm-43.9-35.22h48.72a8.11 8.11 0 0 1-8 7h-32.7a8.12 8.12 0 0 1-8.03-7.03l.01.03Z"/></g></g><defs><clipPath id="clip0_1_57"><path fill="#fff" transform="translate(.531 .125)" d="M0 0h59v58H0z"/></clipPath></defs></svg>