<svg width="58" height="68" fill="none" xmlns="http://www.w3.org/2000/svg"><g clip-path="url('#clip0_1_38')"><mask id="mask0_1_38" style="mask-type:luminance" maskUnits="userSpaceOnUse" x="0" y="0" width="57" height="68"><path d="M56.584.625H.234v66.93h56.35V.625Z" fill="#fff"/></mask><g mask="url('#mask0_1_38')" fill="#000"><path d="M23.524 39.875a2.25 2.25 0 0 1-1 2l.56 1 .54 1a4.521 4.521 0 0 0 2.14-4 6.25 6.25 0 0 0-1.71-3.68 4.86 4.86 0 0 1-1.35-2.6 3.591 3.591 0 0 1 1.08-2.7l-1.4-1.82a5.869 5.869 0 0 0-2 4.52 6.69 6.69 0 0 0 1.82 4 4.54 4.54 0 0 1 1.32 2.28ZM28.474 39.875a2.25 2.25 0 0 1-1 2l.56 1 .54 1a4.521 4.521 0 0 0 2.14-4 6.25 6.25 0 0 0-1.71-3.68 4.86 4.86 0 0 1-1.35-2.6 3.591 3.591 0 0 1 1.08-2.7l-1.4-1.82a5.868 5.868 0 0 0-2 4.52 6.69 6.69 0 0 0 1.82 4 4.54 4.54 0 0 1 1.32 2.28ZM34.065 39.875a2.25 2.25 0 0 1-.95 2l.56 1 .54 1a4.522 4.522 0 0 0 2.14-4 6.25 6.25 0 0 0-1.71-3.68 4.86 4.86 0 0 1-1.35-2.6 3.59 3.59 0 0 1 1.08-2.7l-1.4-1.82a5.868 5.868 0 0 0-2 4.52 6.65 6.65 0 0 0 1.83 4 4.59 4.59 0 0 1 1.26 2.28Z"/><path d="M55.474.625h-54a1.14 1.14 0 0 0-1.15 1.14v64.6a1.14 1.14 0 0 0 1.15 1.15h54a1.15 1.15 0 0 0 1.11-1.15v-64.6a1.15 1.15 0 0 0-1.11-1.14Zm-1.19 14.74v41.36H2.524v-41.36h51.76Zm0-2.3h-29.43V2.915h29.43v10.15ZM2.524 2.935h20v10.13h-20V2.935Zm51.76 62.34H2.524v-6.25h51.76v6.25Z"/><path d="M28.405 53.565a17.09 17.09 0 0 0 14.58-8.14l.7.38c.166.088.352.132.54.13a1.133 1.133 0 0 0 1.01-.61 19 19 0 0 0 2.21-8.89 19 19 0 0 0-2.21-8.89 1.14 1.14 0 0 0-1.55-.48l-.71.38a17.11 17.11 0 0 0-14.57-8.14 17.15 17.15 0 0 0-17.12 17.13 17.15 17.15 0 0 0 17.12 17.13Zm15.31-23.91a16.84 16.84 0 0 1 1.44 6.78 16.84 16.84 0 0 1-1.44 6.78l-1.36-.71a15 15 0 0 0 1.27-6.07 14.998 14.998 0 0 0-1.27-6.07l1.36-.71Zm-15.31-8a14.799 14.799 0 0 1 12.54 6.91l-.64.34a1.15 1.15 0 0 0-.48 1.55 12.709 12.709 0 0 1 1.5 6 12.71 12.71 0 0 1-1.5 6 1.15 1.15 0 0 0 .48 1.55l.64.34a14.8 14.8 0 0 1-12.54 6.91 14.85 14.85 0 0 1-14.83-14.83 14.85 14.85 0 0 1 14.83-14.82v.05ZM30.475 11.945a3.55 3.55 0 0 0 3.54-3.54 3.54 3.54 0 0 0-7.08 0 3.55 3.55 0 0 0 3.54 3.54Zm0-4.79a1.25 1.25 0 0 1 1.25 1.25 1.25 1.25 0 0 1-1.25 1.24 1.25 1.25 0 0 1-1.24-1.24 1.25 1.25 0 0 1 1.24-1.25ZM9.404 7.255h-2.33v2.3h2.33v-2.3ZM14.055 7.255h-2.33v2.3h2.33v-2.3ZM18.714 7.255h-2.33v2.3h2.33v-2.3ZM43.074 7.575h-2.33v2.3h2.33v-2.3ZM47.734 7.575h-2.33v2.3h2.33v-2.3Z"/></g></g><defs><clipPath id="clip0_1_38"><path fill="#fff" transform="translate(.234 .625)" d="M0 0h57v67H0z"/></clipPath></defs></svg>