<svg width="61" height="53" fill="none" xmlns="http://www.w3.org/2000/svg"><g clip-path="url('#clip0_1_86')"><mask id="mask0_1_86" style="mask-type:luminance" maskUnits="userSpaceOnUse" x="0" y="0" width="61" height="52"><path d="M60.084.125H.734v51.23h59.35V.125Z" fill="#fff"/></mask><g mask="url('#mask0_1_86')" fill="#000"><path d="M41.904 43.925h-2.58v2.3h2.58v-2.3ZM36.274 43.925h-2.58v2.3h2.58v-2.3ZM47.535 43.925h-2.58v2.3h2.58v-2.3ZM53.174 43.925h-2.58v2.3h2.58v-2.3Z"/><path d="M58.945 51.355H1.885a1.14 1.14 0 0 1-1.15-1.18v-48.9a1.14 1.14 0 0 1 1.15-1.15h57.06a1.14 1.14 0 0 1 1.14 1.15v48.9a1.14 1.14 0 0 1-1.14 1.18Zm-55.92-2.29h54.77V2.425H3.025v46.64Z"/><path d="M16.424 43.925a10 10 0 0 1-10-9.95 10 10 0 0 1 20 .05 10 10 0 0 1-10 9.9Zm0-17.61a7.67 7.67 0 0 0-7.66 7.66 7.67 7.67 0 0 0 7.66 7.66 7.67 7.67 0 0 0 7.66-7.66 7.67 7.67 0 0 0-7.66-7.66ZM44.955 40.425a6.46 6.46 0 0 1-6.45-6.45 6.46 6.46 0 0 1 8.924-5.965 6.449 6.449 0 0 1-2.474 12.415Zm0-10.61a4.16 4.16 0 0 0-4.15 4.16 4.159 4.159 0 0 0 4.15 4.2 4.17 4.17 0 0 0 4.16-4.16 4.17 4.17 0 0 0-4.16-4.2ZM44.254 20.685h-6.75a7.9 7.9 0 0 1-7.89-7.89 7.9 7.9 0 0 1 7.89-7.9h6.75a7.9 7.9 0 0 1 7.9 7.9 7.9 7.9 0 0 1-7.9 7.89Zm-6.75-13.51a5.61 5.61 0 0 0-5.6 5.6 5.62 5.62 0 0 0 5.6 5.6h6.75a5.61 5.61 0 0 0 5.6-5.6 5.6 5.6 0 0 0-5.6-5.6h-6.75ZM16.424 20.685a7.9 7.9 0 0 1-7.89-7.89 7.9 7.9 0 0 1 7.89-7.9 7.9 7.9 0 0 1 7.9 7.9 7.9 7.9 0 0 1-7.9 7.89Zm0-13.51a5.61 5.61 0 0 0-5.6 5.6 5.62 5.62 0 0 0 5.6 5.6 5.61 5.61 0 0 0 5.6-5.6 5.6 5.6 0 0 0-5.6-5.6Z"/><path d="M16.424 39.435a5.47 5.47 0 0 1-5.46-5.46 5.47 5.47 0 0 1 5.46-5.46 5.47 5.47 0 0 1 5.46 5.46 5.47 5.47 0 0 1-5.46 5.46Zm0-8.63a3.17 3.17 0 0 0-3.16 3.17 3.17 3.17 0 0 0 3.16 3.2 3.17 3.17 0 0 0 3.17-3.17 3.17 3.17 0 0 0-3.17-3.2Z"/></g></g><defs><clipPath id="clip0_1_86"><path fill="#fff" transform="translate(.734 .125)" d="M0 0h60v52H0z"/></clipPath></defs></svg>