<svg width="53" height="65" fill="none" xmlns="http://www.w3.org/2000/svg"><g clip-path="url('#clip0_1_24')"><mask id="mask0_1_24" style="mask-type:luminance" maskUnits="userSpaceOnUse" x="0" y="0" width="53" height="64"><path d="M52.178.125H.438v63.55h51.74V.125Z" fill="#fff"/></mask><g mask="url('#mask0_1_24')" fill="#000"><path d="M51.027.125H1.617a1.15 1.15 0 0 0-1.15 1.15v57.57a1.15 1.15 0 0 0 1.15 1.15h3.33v2.5a1.14 1.14 0 0 0 1.15 1.15h40a1.14 1.14 0 0 0 1.15-1.15v-2.5h3.78a1.16 1.16 0 0 0 1.15-1.15V1.275a1.16 1.16 0 0 0-1.15-1.15Zm-48.29 2.3h22.42v55.27H2.737V2.425Zm42.22 59H7.207v-1.43h37.75v1.43Zm4.92-3.69h-22.42V2.425h22.42v55.31Z"/><path d="M35.057 6.865h-2.3v25.5h2.3v-25.5ZM32.217 47.895l1.15 2 4.15-2.4v4.79h2.3v-4.79l4.14 2.39 1.15-2-4.15-2.39 4.15-2.4-1.15-2-4.15 2.4v-4.79h-2.29v4.79l-4.15-2.39-1.15 2 4.15 2.4-4.15 2.39Zm4.28-2.39 1.08-1.88h2.17l1.09 1.88-1.09 1.88h-2.13l-1.12-1.88ZM19.867 6.865h-2.3v25.5h2.3v-25.5ZM13.147 5.245h-2.58v2.3h2.58v-2.3ZM7.518 5.245h-2.58v2.3h2.58v-2.3Z"/></g></g><defs><clipPath id="clip0_1_24"><path fill="#fff" transform="translate(.438 .125)" d="M0 0h52v64H0z"/></clipPath></defs></svg>