<svg width="78" height="73" fill="none" xmlns="http://www.w3.org/2000/svg"><g clip-path="url('#clip0_1_104')"><mask id="mask0_1_104" style="mask-type:luminance" maskUnits="userSpaceOnUse" x="0" y="0" width="78" height="72"><path d="M77.191.125H.531v71.47h76.66V.125Z" fill="#fff"/></mask><g mask="url('#mask0_1_104')" fill="#000"><path d="M75.171.125h-24.11a2 2 0 0 0-2 2v5.57a2 2 0 0 0 2 2h5.84v2.28a1.15 1.15 0 0 0 1.15 1.14h3.92v48.81a7.379 7.379 0 0 1-14.76 0v-45.64a13.58 13.58 0 0 0-13.57-13.56 13.56 13.56 0 0 0-13.3 10.93h-2.51a1.15 1.15 0 0 0-1.14 1.15v3.72h-.7a1.15 1.15 0 0 0-1.15 1.15v4.94a16.36 16.36 0 0 0-10 15v10.39a4.43 4.43 0 0 0-4.26 4.4v12.75a4.44 4.44 0 0 0 4.43 4.43h32.51a4.44 4.44 0 0 0 4.43-4.43v-12.75a4.43 4.43 0 0 0-4.37-4.4v-10.35a16.36 16.36 0 0 0-10-15v-4.94a1.14 1.14 0 0 0-1.14-1.15h-.86v-3.76a1.15 1.15 0 0 0-1.15-1.15h-1.71a11.27 11.27 0 0 1 10.95-8.64 11.28 11.28 0 0 1 11.27 11.27v45.64a9.68 9.68 0 0 0 9.64 9.66 9.67 9.67 0 0 0 9.66-9.66v-48.77h4.6a1.15 1.15 0 0 0 1.15-1.14v-2.28h5.16a2 2 0 0 0 2-2v-5.57a2 2 0 0 0-1.98-2.04Zm-47.45 27.12a7.4 7.4 0 0 1-6.48 3.8 7.41 7.41 0 0 1-6.48-3.81 13.91 13.91 0 0 1 12.96.01Zm-24.89 39.91v-12.75a2.13 2.13 0 0 1 2.08-2.13v17a2.13 2.13 0 0 1-2.08-2.12Zm12.45 2.14v-19.65a6 6 0 0 1 12 0v19.65h-12Zm24.3-14.89v12.75a2.14 2.14 0 0 1-2 2.13v-17a2.13 2.13 0 0 1 2 2.12Zm-4.32-14.77v29.66h-5.79v-19.65a8.26 8.26 0 0 0-8.26-8.26 8.27 8.27 0 0 0-8.26 8.26v19.65h-5.78v-17.72a1.07 1.07 0 0 0 0-.86v-11.06a14 14 0 0 1 5.64-11.25 9.71 9.71 0 0 0 16.87 0 14.06 14.06 0 0 1 5.61 11.25l-.03-.02Zm-11.38-16.1-.68-.11-.57-.06c-.47 0-.94-.07-1.42-.07s-.94 0-1.41.07l-.56.06-.72.11c-.47.08-.93.18-1.39.3v-3h8.17v3c-.44-.1-.91-.2-1.39-.28l-.03-.02Zm-.64-5h-4.27v-2.57h4.27v2.57Zm44.44-7.66h-8.51v-1.13h8.51v1.13Zm7.19-3.42h-23.57v-5h23.57v5Z"/><path d="M21.241 47.735a4.07 4.07 0 0 0-4.06 4.06 4.07 4.07 0 0 0 4.06 4.06 4.06 4.06 0 0 0 0-8.12Zm0 5.83a1.761 1.761 0 0 1-1.76-1.77 1.76 1.76 0 0 1 1.76-1.76 1.76 1.76 0 0 1 1.77 1.76 1.77 1.77 0 0 1-1.77 1.77ZM20.162 36.015h-2.66v2.3h2.66v-2.3ZM25.481 36.015h-2.66v2.3h2.66v-2.3Z"/></g></g><defs><clipPath id="clip0_1_104"><path fill="#fff" transform="translate(.531 .125)" d="M0 0h77v72H0z"/></clipPath></defs></svg>